<?xml version="1.0" encoding="UTF-8" standalone="no"?>
<!-- Created with Inkscape (http://www.inkscape.org/) -->

<svg
   xmlns:dc="http://purl.org/dc/elements/1.1/"
   xmlns:cc="http://creativecommons.org/ns#"
   xmlns:rdf="http://www.w3.org/1999/02/22-rdf-syntax-ns#"
   xmlns:svg="http://www.w3.org/2000/svg"
   xmlns="http://www.w3.org/2000/svg"
   xmlns:sodipodi="http://sodipodi.sourceforge.net/DTD/sodipodi-0.dtd"
   xmlns:inkscape="http://www.inkscape.org/namespaces/inkscape"
   width="190.22487mm"
   height="168.07423mm"
   viewBox="0 0 190.22487 168.07423"
   version="1.1"
   id="svg6322"
   inkscape:version="0.92.3 (2405546, 2018-03-11)"
   sodipodi:docname="bloodmallet_s.svg">
  <defs
     id="defs6316" />
  <sodipodi:namedview
     id="base"
     pagecolor="#ffffff"
     bordercolor="#666666"
     borderopacity="1.0"
     inkscape:pageopacity="0.0"
     inkscape:pageshadow="2"
     inkscape:zoom="0.35"
     inkscape:cx="-884.80564"
     inkscape:cy="300.173"
     inkscape:document-units="mm"
     inkscape:current-layer="layer1"
     showgrid="false"
     inkscape:window-width="1858"
     inkscape:window-height="1057"
     inkscape:window-x="54"
     inkscape:window-y="0"
     inkscape:window-maximized="1" />
  <metadata
     id="metadata6319">
    <rdf:RDF>
      <cc:Work
         rdf:about="">
        <dc:format>image/svg+xml</dc:format>
        <dc:type
           rdf:resource="http://purl.org/dc/dcmitype/StillImage" />
        <dc:title />
      </cc:Work>
    </rdf:RDF>
  </metadata>
  <g
     inkscape:label="Ebene 1"
     inkscape:groupmode="layer"
     id="layer1"
     transform="translate(-9.5869691,-60.179865)">
    <g
       transform="matrix(0.76848735,0,0,0.76848735,-192.1255,12.149406)"
       id="g5732">
      <g
         id="g5688">
        <rect
           style="fill:#5583c3"
           x="356.60001"
           y="151.39999"
           transform="matrix(0.7071,-0.7071,0.7071,0.7071,-17.0741,311.5634)"
           width="21.9"
           height="50"
           id="rect5686" />
      </g>
      <g
         id="g5692">
        <rect
           style="fill:#5583c3"
           x="437.39999"
           y="75.099998"
           transform="matrix(0.7071,-0.7071,0.7071,0.7071,59.1989,343.0489)"
           width="12.5"
           height="50"
           id="rect5690" />
      </g>
      <g
         id="g5696">
        <rect
           style="fill:#5583c3"
           x="336.60001"
           y="171.2"
           transform="matrix(0.7071,-0.7071,0.7071,0.7071,-36.9235,303.2337)"
           width="21.9"
           height="50"
           id="rect5694" />
      </g>
      <g
         id="g5700">
        <rect
           style="fill:#5583c3"
           x="316.70001"
           y="191.10001"
           transform="matrix(0.7071,-0.7071,0.7071,0.7071,-56.8107,294.9962)"
           width="21.9"
           height="50"
           id="rect5698" />
      </g>
      <g
         id="g5704">
        <rect
           style="fill:#5583c3"
           x="296.89999"
           y="211"
           transform="matrix(0.7071,-0.7071,0.7071,0.7071,-76.6983,286.7585)"
           width="21.9"
           height="50"
           id="rect5702" />
      </g>
      <g
         id="g5708">
        <rect
           style="fill:#5583c3"
           x="277"
           y="230.8"
           transform="matrix(0.7071,-0.7071,0.7071,0.7071,-96.5855,278.5209)"
           width="21.9"
           height="50"
           id="rect5706" />
      </g>
      <polygon
         style="fill:#919395"
         points="415,199.5 470.2,144.3 459.2,133.2 399.5,73.5 375.2,62.5 333.2,104.5 344.3,128.8 403.9,188.5 406.1,190.7 "
         id="polygon5710" />
      <polygon
         style="fill:#919395"
         points="441.5,239.3 510,170.8 481.3,142 473.6,149.7 412.8,210.6 "
         id="polygon5712" />
      <g
         style="opacity:0.3"
         id="g5730">
        <rect
           x="400.20001"
           y="163.89999"
           transform="matrix(0.7071,-0.7071,0.7071,0.7071,9.467,359.9874)"
           width="78.099998"
           height="9.3999996"
           id="rect5714" />
        <polygon
           points="357.6,151 353.1,155.3 388.5,190.7 393,186.3 "
           id="polygon5716" />
        <polygon
           points="337.6,170.8 333.1,175.1 368.5,210.5 373,206.1 "
           id="polygon5718" />
        <polygon
           points="317.7,190.7 313.2,195 348.6,230.3 353.1,226 "
           id="polygon5720" />
        <polygon
           points="297.9,210.6 293.3,214.9 328.7,250.2 333.2,245.9 "
           id="polygon5722" />
        <polygon
           points="278.1,230.5 273.5,234.9 308.9,270.2 313.4,265.9 "
           id="polygon5724" />
        <polygon
           points="430.4,78 425.9,82.3 461.3,117.7 465.8,113.3 "
           id="polygon5726" />
        <rect
           x="424"
           y="197"
           transform="matrix(0.7071,-0.7071,0.7071,0.7071,-4.2624,393.133)"
           width="96.900002"
           height="9.3999996"
           id="rect5728" />
      </g>
    </g>
  </g>
</svg>
